<svg width="31" height="31" viewBox="0 0 31 31" fill="none" xmlns="http://www.w3.org/2000/svg">
<rect x="8.06573" y="10.9246" width="13.7554" height="10.7812" fill="#1ACE5F"/>
<path d="M28.4126 12.3515C27.9116 11.8279 27.3933 11.2884 27.198 10.814C27.0172 10.3794 27.0066 9.65914 26.996 8.96147C26.976 7.66446 26.9548 6.19469 25.9329 5.17277C24.9109 4.15084 23.4412 4.12958 22.1442 4.10964C21.4465 4.09901 20.7262 4.08838 20.2917 3.90765C19.8186 3.7123 19.2777 3.19403 18.7541 2.69303C17.8372 1.81197 16.7953 0.813965 15.4079 0.813965C14.0206 0.813965 12.98 1.81197 12.0618 2.69303C11.5382 3.19403 10.9986 3.7123 10.5242 3.90765C10.0923 4.08838 9.36941 4.09901 8.67173 4.10964C7.37473 4.12958 5.90496 4.15084 4.88303 5.17277C3.86111 6.19469 3.84649 7.66446 3.81991 8.96147C3.80928 9.65914 3.79865 10.3794 3.61792 10.814C3.42257 11.287 2.9043 11.8279 2.4033 12.3515C1.52224 13.2684 0.524231 14.3103 0.524231 15.6977C0.524231 17.0851 1.52224 18.1256 2.4033 19.0439C2.9043 19.5674 3.42257 20.107 3.61792 20.5814C3.79865 21.0159 3.80928 21.7362 3.81991 22.4339C3.83984 23.7309 3.86111 25.2007 4.88303 26.2226C5.90496 27.2445 7.37473 27.2658 8.67173 27.2857C9.36941 27.2963 10.0897 27.307 10.5242 27.4877C10.9973 27.6831 11.5382 28.2013 12.0618 28.7023C12.9787 29.5834 14.0206 30.5814 15.4079 30.5814C16.7953 30.5814 17.8358 29.5834 18.7541 28.7023C19.2777 28.2013 19.8172 27.6831 20.2917 27.4877C20.7262 27.307 21.4465 27.2963 22.1442 27.2857C23.4412 27.2658 24.9109 27.2445 25.9329 26.2226C26.9548 25.2007 26.976 23.7309 26.996 22.4339C27.0066 21.7362 27.0172 21.0159 27.198 20.5814C27.3933 20.1083 27.9116 19.5674 28.4126 19.0439C29.2937 18.1269 30.2917 17.0851 30.2917 15.6977C30.2917 14.3103 29.2937 13.2698 28.4126 12.3515ZM21.4757 13.2605L14.0339 20.7023C13.9351 20.8012 13.8179 20.8796 13.6888 20.9331C13.5598 20.9866 13.4214 21.0141 13.2817 21.0141C13.142 21.0141 13.0036 20.9866 12.8746 20.9331C12.7455 20.8796 12.6283 20.8012 12.5295 20.7023L9.34017 17.513C9.14069 17.3135 9.02862 17.0429 9.02862 16.7608C9.02862 16.4787 9.14069 16.2081 9.34017 16.0086C9.53966 15.8092 9.81022 15.6971 10.0923 15.6971C10.3744 15.6971 10.645 15.8092 10.8445 16.0086L13.2817 18.4472L19.9714 11.7562C20.0702 11.6574 20.1874 11.579 20.3165 11.5256C20.4455 11.4721 20.5839 11.4446 20.7236 11.4446C20.8632 11.4446 21.0016 11.4721 21.1306 11.5256C21.2597 11.579 21.3769 11.6574 21.4757 11.7562C21.5745 11.8549 21.6528 11.9722 21.7063 12.1012C21.7598 12.2303 21.7873 12.3686 21.7873 12.5083C21.7873 12.648 21.7598 12.7863 21.7063 12.9154C21.6528 13.0444 21.5745 13.1617 21.4757 13.2605Z" fill="#128F42"/>
</svg>
