<svg width="81" height="81" viewBox="0 0 81 81" fill="none" xmlns="http://www.w3.org/2000/svg">
<path d="M44.0793 7.59258C43.1299 6.64351 41.8425 6.11035 40.5001 6.11035C39.1577 6.11035 37.8703 6.64351 36.9209 7.59258L3.27049 41.238C3.03515 41.4733 2.84846 41.7527 2.72109 42.0602C2.59372 42.3677 2.52817 42.6973 2.52817 43.0301C2.52817 43.3629 2.59372 43.6925 2.72109 44C2.84846 44.3075 3.03515 44.5869 3.27049 44.8222C3.74579 45.2975 4.39044 45.5645 5.06262 45.5645C5.39544 45.5645 5.72501 45.499 6.03251 45.3716C6.34 45.2442 6.61939 45.0576 6.85474 44.8222L10.1251 41.5468V68.3426C10.1251 70.3566 10.9252 72.2881 12.3493 73.7122C13.7734 75.1363 15.7049 75.9363 17.7189 75.9363H63.2814C65.2954 75.9363 67.2269 75.1363 68.651 73.7122C70.0751 72.2881 70.8751 70.3566 70.8751 68.3426V41.5468L74.1455 44.8222C74.6208 45.2975 75.2654 45.5645 75.9376 45.5645C76.6098 45.5645 77.2544 45.2975 77.7297 44.8222C78.205 44.3469 78.4721 43.7023 78.4721 43.0301C78.4721 42.3579 78.205 41.7133 77.7297 41.238L65.8126 29.3259V12.6551C65.8126 11.9838 65.5459 11.3399 65.0712 10.8652C64.5965 10.3905 63.9527 10.1238 63.2814 10.1238H58.2189C57.5475 10.1238 56.9037 10.3905 56.429 10.8652C55.9543 11.3399 55.6876 11.9838 55.6876 12.6551V19.2009L44.0793 7.59258ZM65.8126 36.4843V68.3426C65.8126 69.0139 65.5459 69.6577 65.0712 70.1324C64.5965 70.6072 63.9527 70.8738 63.2814 70.8738H17.7189C17.0475 70.8738 16.4037 70.6072 15.929 70.1324C15.4543 69.6577 15.1876 69.0139 15.1876 68.3426V36.4843L40.5001 11.1718L65.8126 36.4843Z" fill="#1BCE5F"/>
<path d="M42.2987 27.3998V33.171H39.3263V27.3998H42.2987ZM41.932 58.9191V64.0919H38.9789V58.9191H41.932ZM44.8465 52.6847C44.8465 51.9384 44.6921 51.2886 44.3833 50.7353C44.0873 50.1691 43.5983 49.6608 42.9164 49.2105C42.2344 48.7472 41.3208 48.3162 40.1756 47.9173C38.5285 47.3382 37.0873 46.6884 35.852 45.9678C34.6296 45.2344 33.6774 44.3336 32.9954 43.2656C32.3263 42.1847 31.9917 40.8401 31.9917 39.2316C31.9917 37.6489 32.352 36.2785 33.0726 35.1204C33.8061 33.9623 34.8226 33.068 36.1222 32.4375C37.4219 31.807 38.9403 31.4917 40.6774 31.4917C42.0156 31.4917 43.2187 31.6912 44.2868 32.0901C45.3676 32.489 46.2877 33.0744 47.0469 33.8465C47.8061 34.6186 48.3851 35.5708 48.784 36.7031C49.1958 37.8226 49.4017 39.1094 49.4017 40.5634H44.7693C44.7693 39.7399 44.6728 39.0064 44.4798 38.3631C44.2996 37.7068 44.0294 37.1535 43.6691 36.7031C43.3088 36.2399 42.8713 35.886 42.3566 35.6415C41.8548 35.3971 41.2822 35.2748 40.6388 35.2748C39.7252 35.2748 38.9724 35.4485 38.3805 35.796C37.7886 36.1305 37.3511 36.5938 37.068 37.1857C36.7978 37.7776 36.6627 38.4531 36.6627 39.2123C36.6627 39.9458 36.8042 40.5892 37.0873 41.1425C37.3704 41.6958 37.8529 42.1976 38.5349 42.648C39.2298 43.0855 40.182 43.5294 41.3915 43.9798C43.0515 44.5717 44.4862 45.2344 45.6958 45.9678C46.9182 46.6884 47.8575 47.5827 48.5138 48.6507C49.1829 49.7059 49.5175 51.0377 49.5175 52.6461C49.5175 54.3061 49.1314 55.7151 48.3594 56.8732C47.6002 58.0313 46.5322 58.9127 45.1553 59.5175C43.7914 60.1094 42.2022 60.4053 40.3879 60.4053C39.2426 60.4053 38.1039 60.2574 36.9715 59.9614C35.852 59.6526 34.8355 59.1507 33.9219 58.4559C33.0083 57.761 32.2812 56.841 31.7408 55.6958C31.2004 54.5377 30.9301 53.1222 30.9301 51.4494H35.6011C35.6011 52.4531 35.7362 53.2895 36.0064 53.9586C36.2767 54.6278 36.6434 55.1553 37.1066 55.5414C37.5699 55.9274 38.0846 56.204 38.6507 56.3713C39.2298 56.5386 39.8088 56.6222 40.3879 56.6222C41.3529 56.6222 42.1636 56.4614 42.8199 56.1397C43.489 55.8051 43.9908 55.3419 44.3254 54.75C44.6728 54.1452 44.8465 53.4568 44.8465 52.6847Z" fill="#1ACE5F"/>
</svg>
