<svg width="54" height="74" viewBox="0 0 54 74" fill="none" xmlns="http://www.w3.org/2000/svg">
<path d="M28.8309 70.0957C28.0611 71.429 26.1366 71.429 25.3668 70.0957L6.19124 36.8826C5.42144 35.5493 6.38369 33.8826 7.92329 33.8826L46.2745 33.8826C47.8141 33.8826 48.7763 35.5493 48.0065 36.8826L28.8309 70.0957Z" fill="#1ACE5F"/>
<path d="M51.7352 24.8332C51.7352 38.4395 40.7051 49.4695 27.0988 49.4695C13.4925 49.4695 2.46242 38.4395 2.46242 24.8332C2.46242 11.2269 13.4925 0.196777 27.0988 0.196777C40.7051 0.196777 51.7352 11.2269 51.7352 24.8332ZM19.1341 24.8332C19.1341 29.232 22.7 32.7979 27.0988 32.7979C31.4976 32.7979 35.0635 29.232 35.0635 24.8332C35.0635 20.4344 31.4976 16.8684 27.0988 16.8684C22.7 16.8684 19.1341 20.4344 19.1341 24.8332Z" fill="#1ACE5F"/>
</svg>
