<svg width="80" height="82" viewBox="0 0 80 82" fill="none" xmlns="http://www.w3.org/2000/svg">
<rect x="44.1705" y="54.9556" width="11.7262" height="37.7309" rx="3.39732" transform="rotate(-45 44.1705 54.9556)" fill="#1ACE5F"/>
<path d="M61.6562 31.0923C61.6562 47.9731 47.9717 61.6576 31.0908 61.6576C14.21 61.6576 0.525452 47.9731 0.525452 31.0923C0.525452 14.2114 14.21 0.526855 31.0908 0.526855C47.9717 0.526855 61.6562 14.2114 61.6562 31.0923ZM7.88156 31.0923C7.88156 43.9104 18.2727 54.3015 31.0908 54.3015C43.909 54.3015 54.3001 43.9104 54.3001 31.0923C54.3001 18.2741 43.909 7.88296 31.0908 7.88296C18.2727 7.88296 7.88156 18.2741 7.88156 31.0923Z" fill="#1ACE5F"/>
</svg>
