<svg width="93" height="90" viewBox="0 0 93 90" fill="none" xmlns="http://www.w3.org/2000/svg">
<path d="M0.313141 29.7568H11.9517C13.083 29.7568 14.116 30.3996 14.6159 31.4145L30.7849 64.2424C31.2847 65.2572 32.3178 65.9 33.4491 65.9H73.6555C74.8195 65.9 75.8761 65.22 76.3584 64.1606L90.1078 33.9571C91.003 31.9906 89.5655 29.7568 87.4048 29.7568H79.8822" stroke="#1ACE5F" stroke-width="4.45477"/>
<path d="M72.8276 25.7193C72.8276 39.4348 61.709 50.5533 47.9936 50.5533C34.2781 50.5533 23.1595 39.4348 23.1595 25.7193C23.1595 12.0038 34.2781 0.885254 47.9936 0.885254C61.709 0.885254 72.8276 12.0038 72.8276 25.7193ZM27.678 25.7193C27.678 36.9393 36.7736 46.0348 47.9936 46.0348C59.2135 46.0348 68.3091 36.9393 68.3091 25.7193C68.3091 14.4993 59.2135 5.40377 47.9936 5.40377C36.7736 5.40377 27.678 14.4993 27.678 25.7193Z" fill="#1ACE5F"/>
<path d="M44.148 80.4813C44.148 85.3438 40.2061 89.2858 35.3435 89.2858C30.4809 89.2858 26.539 85.3438 26.539 80.4813C26.539 75.6187 30.4809 71.6768 35.3435 71.6768C40.2061 71.6768 44.148 75.6187 44.148 80.4813ZM32.1717 80.4813C32.1717 82.233 33.5918 83.6531 35.3435 83.6531C37.0953 83.6531 38.5153 82.233 38.5153 80.4813C38.5153 78.7295 37.0953 77.3094 35.3435 77.3094C33.5918 77.3094 32.1717 78.7295 32.1717 80.4813Z" fill="#1ACE5F"/>
<path d="M80.0223 80.4813C80.0223 85.3438 76.0804 89.2858 71.2178 89.2858C66.3552 89.2858 62.4133 85.3438 62.4133 80.4813C62.4133 75.6187 66.3552 71.6768 71.2178 71.6768C76.0804 71.6768 80.0223 75.6187 80.0223 80.4813ZM67.897 80.4813C67.897 82.3153 69.3838 83.802 71.2178 83.802C73.0518 83.802 74.5386 82.3153 74.5386 80.4813C74.5386 78.6473 73.0518 77.1605 71.2178 77.1605C69.3838 77.1605 67.897 78.6473 67.897 80.4813Z" fill="#1ACE5F"/>
<path d="M48.884 7.10245V12.8736H45.9116V7.10245H48.884ZM48.5173 38.6218V43.7945H45.5641V38.6218H48.5173ZM51.4318 32.3874C51.4318 31.6411 51.2774 30.9912 50.9685 30.4379C50.6726 29.8718 50.1836 29.3635 49.5016 28.9131C48.8196 28.4499 47.906 28.0188 46.7608 27.6199C45.1138 27.0409 43.6726 26.3911 42.4373 25.6705C41.2149 24.937 40.2627 24.0363 39.5807 22.9683C38.9116 21.8874 38.577 20.5427 38.577 18.9343C38.577 17.3515 38.9373 15.9811 39.6579 14.823C40.3913 13.665 41.4079 12.7707 42.7075 12.1401C44.0071 11.5096 45.5255 11.1944 47.2627 11.1944C48.6009 11.1944 49.804 11.3938 50.872 11.7927C51.9529 12.1916 52.8729 12.7771 53.6321 13.5491C54.3913 14.3212 54.9704 15.2734 55.3693 16.4058C55.781 17.5252 55.9869 18.812 55.9869 20.2661H51.3546C51.3546 19.4425 51.2581 18.7091 51.065 18.0657C50.8849 17.4094 50.6147 16.8561 50.2544 16.4058C49.8941 15.9425 49.4566 15.5887 48.9419 15.3442C48.44 15.0997 47.8674 14.9775 47.2241 14.9775C46.3104 14.9775 45.5577 15.1512 44.9658 15.4986C44.3739 15.8332 43.9364 16.2964 43.6533 16.8883C43.3831 17.4802 43.2479 18.1558 43.2479 18.915C43.2479 19.6484 43.3895 20.2918 43.6726 20.8451C43.9557 21.3984 44.4382 21.9002 45.1202 22.3506C45.815 22.7881 46.7673 23.232 47.9768 23.6824C49.6367 24.2743 51.0715 24.937 52.281 25.6705C53.5035 26.3911 54.4428 27.2854 55.0991 28.3534C55.7682 29.4085 56.1027 30.7403 56.1027 32.3488C56.1027 34.0087 55.7167 35.4177 54.9446 36.5758C54.1854 37.7339 53.1174 38.6153 51.7406 39.2201C50.3766 39.812 48.7875 40.108 46.9731 40.108C45.8279 40.108 44.6891 39.96 43.5568 39.664C42.4373 39.3552 41.4207 38.8534 40.5071 38.1585C39.5935 37.4637 38.8665 36.5436 38.3261 35.3984C37.7856 34.2403 37.5154 32.8249 37.5154 31.1521H42.1864C42.1864 32.1558 42.3215 32.9922 42.5917 33.6613C42.8619 34.3304 43.2286 34.858 43.6919 35.244C44.1551 35.63 44.6698 35.9067 45.236 36.074C45.815 36.2412 46.3941 36.3249 46.9731 36.3249C47.9382 36.3249 48.7489 36.164 49.4051 35.8423C50.0742 35.5078 50.5761 35.0445 50.9106 34.4526C51.2581 33.8479 51.4318 33.1594 51.4318 32.3874Z" fill="#1ACE5F"/>
</svg>
