<svg width="170" height="98" viewBox="0 0 170 98" fill="none" xmlns="http://www.w3.org/2000/svg">
<path d="M166.634 20.0828L91.4038 95.537C90.5082 96.4326 89.5379 97.0684 88.4931 97.4446C87.4482 97.8207 86.3287 98.0058 85.1346 97.9999C83.9405 97.9999 82.821 97.8148 81.7761 97.4446C80.7312 97.0744 79.761 96.4385 78.8654 95.537L3.4112 20.0828C1.32147 17.993 0.276608 15.3809 0.276608 12.2463C0.276607 9.11168 1.39611 6.42488 3.6351 4.18588C5.8741 1.94688 8.48626 0.827392 11.4716 0.827392C14.4569 0.827392 17.0691 1.94688 19.3081 4.18588L85.1346 70.0124L150.961 4.18588C153.051 2.09615 155.627 1.05128 158.69 1.05128C161.753 1.05128 164.401 2.17078 166.634 4.40977C168.873 6.64877 169.993 9.26093 169.993 12.2463C169.993 15.2316 168.873 17.8438 166.634 20.0828Z" fill="white"/>
</svg>
