<svg width="467" height="656" viewBox="0 0 467 656" fill="none" xmlns="http://www.w3.org/2000/svg">
<rect x="265.469" y="352.34" width="45.2682" height="45.2682" transform="rotate(180 265.469 352.34)" fill="#1ACE5F"/>
<rect x="220.201" y="574.613" width="54.4325" height="54.4325" transform="rotate(180 220.201 574.613)" fill="#1ACE5F"/>
<rect x="415.9" y="520.181" width="54.4325" height="54.4325" transform="rotate(180 415.9 520.181)" fill="#1ACE5F"/>
<rect x="193.883" y="302.521" width="54.4325" height="54.4325" transform="rotate(180 193.883 302.521)" fill="#1ACE5F"/>
<rect x="466.966" y="452.612" width="54.4325" height="54.4325" transform="rotate(180 466.966 452.612)" fill="#1ACE5F"/>
<rect x="354.799" y="384.93" width="54.4325" height="54.4325" transform="rotate(180 354.799 384.93)" fill="#1ACE5F"/>
<rect x="292.686" y="285.715" width="54.4325" height="54.4325" transform="rotate(180 292.686 285.715)" fill="#1ACE5F"/>
<rect x="204.313" y="217.349" width="54.4325" height="54.4325" transform="rotate(180 204.313 217.349)" fill="#1ACE5F"/>
<rect x="195.283" y="109.13" width="54.4325" height="54.4325" transform="rotate(180 195.283 109.13)" fill="#1ACE5F"/>
<rect x="274.634" y="54.6975" width="54.4325" height="54.4325" transform="rotate(180 274.634 54.6975)" fill="#1ACE5F"/>
<rect x="359.23" y="217.349" width="54.4325" height="54.4325" transform="rotate(180 359.23 217.349)" fill="#1ACE5F"/>
<rect x="165.769" y="479.067" width="82.4247" height="81.0019" transform="rotate(180 165.769 479.067)" fill="#1ACE5F"/>
<rect x="295.767" y="162.916" width="82.4247" height="81.0019" transform="rotate(180 295.767 162.916)" fill="#1ACE5F"/>
<rect x="437.224" y="655.615" width="82.4247" height="81.0019" transform="rotate(180 437.224 655.615)" fill="#1ACE5F"/>
<rect x="450.684" y="330.498" width="69.5671" height="68.3662" transform="rotate(180 450.684 330.498)" fill="#1ACE5F"/>
<rect x="44.7788" y="474.472" width="44.4856" height="43.7177" transform="rotate(180 44.7788 474.472)" fill="#1ACE5F"/>
<rect x="325.128" y="574.613" width="54.4325" height="54.4325" transform="rotate(180 325.128 574.613)" fill="#1ACE5F"/>
<rect x="103.11" y="356.954" width="54.4325" height="54.4325" transform="rotate(180 103.11 356.954)" fill="#1ACE5F"/>
<rect x="318.138" y="466.433" width="69.5671" height="68.3662" transform="rotate(180 318.138 466.433)" fill="#1ACE5F"/>
<rect x="77.3888" y="231.283" width="69.5671" height="68.3662" transform="rotate(180 77.3888 231.283)" fill="#1ACE5F"/>
<rect x="450.684" y="162.916" width="82.4247" height="81.0019" transform="rotate(180 450.684 162.916)" fill="#1ACE5F"/>
<rect x="124.556" y="149.632" width="54.4325" height="54.4325" transform="rotate(180 124.556 149.632)" fill="#1ACE5F"/>
</svg>
