<svg width="1315" height="1318" viewBox="0 0 1315 1318" fill="none" xmlns="http://www.w3.org/2000/svg">
<path d="M1071.69 893.318C1103.34 839.223 1124.04 779.469 1132.59 717.467C1141.14 655.465 1137.39 592.43 1121.54 531.96C1105.7 471.49 1078.07 414.77 1040.23 365.039C1002.4 315.307 955.102 273.538 901.04 242.116C846.977 210.694 787.21 190.234 725.15 181.905C663.09 173.576 599.953 177.541 539.344 193.573C478.734 209.605 421.84 237.39 371.908 275.343C321.977 313.295 279.986 360.671 248.334 414.766L316.595 454.441C342.999 409.315 378.027 369.795 419.679 338.135C461.331 306.476 508.792 283.297 559.352 269.923C609.912 256.55 662.58 253.242 714.349 260.19C766.119 267.138 815.976 284.206 861.075 310.418C906.173 336.63 945.629 371.473 977.19 412.959C1008.75 454.444 1031.8 501.759 1045.02 552.202C1058.24 602.646 1061.37 655.229 1054.23 706.95C1047.1 758.672 1029.83 808.518 1003.43 853.644L1071.69 893.318Z" fill="url(#paint0_linear_149_74)"/>
<path d="M241.299 426.769C209.803 480.954 189.281 540.768 180.905 602.794C172.529 664.82 176.463 727.845 192.483 788.269C208.503 848.693 236.295 905.333 274.272 954.956C312.249 1004.58 359.667 1046.21 413.82 1077.48C467.972 1108.75 527.798 1129.03 589.882 1137.18C651.965 1145.33 715.09 1141.19 775.653 1124.98C836.216 1108.78 893.031 1080.83 942.853 1042.73C992.676 1004.64 1034.53 957.139 1066.03 902.954L997.652 863.476C971.378 908.677 936.464 948.298 894.903 980.077C853.341 1011.86 805.947 1035.17 755.426 1048.69C704.905 1062.21 652.247 1065.67 600.457 1058.87C548.668 1052.07 498.762 1035.14 453.588 1009.06C408.415 982.98 368.859 948.25 337.179 906.855C305.499 865.46 282.315 818.211 268.952 767.806C255.588 717.401 252.306 664.827 259.293 613.086C266.28 561.344 283.4 511.448 309.674 466.247L241.299 426.769Z" fill="#1ACE5F"/>
<defs>
<linearGradient id="paint0_linear_149_74" x1="901.04" y1="242.116" x2="656.012" y2="662.454" gradientUnits="userSpaceOnUse">
<stop stop-color="white"/>
<stop offset="1" stop-color="white"/>
</linearGradient>
</defs>
</svg>
