<svg width="33" height="19" viewBox="0 0 33 19" fill="none" xmlns="http://www.w3.org/2000/svg">
<path d="M31.5922 4.46823L17.5922 18.5099C17.4255 18.6766 17.245 18.7949 17.0505 18.8649C16.8561 18.9349 16.6477 18.9693 16.4255 18.9682C16.2033 18.9682 15.995 18.9338 15.8005 18.8649C15.6061 18.796 15.4255 18.6777 15.2588 18.5099L1.21718 4.46823C0.828294 4.07934 0.633849 3.59323 0.633849 3.0099C0.633849 2.42657 0.842183 1.92657 1.25885 1.5099C1.67552 1.09323 2.16163 0.884901 2.71718 0.884901C3.27274 0.884901 3.75885 1.09323 4.17552 1.5099L16.4255 13.7599L28.6755 1.5099C29.0644 1.12101 29.5438 0.926566 30.1138 0.926566C30.6838 0.926566 31.1766 1.1349 31.5922 1.55157C32.0088 1.96823 32.2172 2.45434 32.2172 3.0099C32.2172 3.56545 32.0088 4.05157 31.5922 4.46823Z" fill="white"/>
</svg>
