<svg width="217" height="320" viewBox="0 0 217 320" fill="none" xmlns="http://www.w3.org/2000/svg">
<rect x="90.8268" y="148.331" width="22.0618" height="22.0618" fill="#1ACE5F"/>
<rect x="112.889" y="40.0054" width="26.5281" height="26.5281" fill="#1ACE5F"/>
<rect x="17.5132" y="66.5332" width="26.5281" height="26.5281" fill="#1ACE5F"/>
<rect x="125.715" y="172.611" width="26.5281" height="26.5281" fill="#1ACE5F"/>
<rect x="47.2914" y="132.448" width="26.5281" height="26.5281" fill="#1ACE5F"/>
<rect x="77.5629" y="180.801" width="26.5281" height="26.5281" fill="#1ACE5F"/>
<rect x="120.632" y="214.12" width="26.5281" height="26.5281" fill="#1ACE5F"/>
<rect x="125.033" y="266.861" width="26.5281" height="26.5281" fill="#1ACE5F"/>
<rect x="86.3605" y="293.39" width="26.5281" height="26.5281" fill="#1ACE5F"/>
<rect x="139.417" y="86.5698" width="40.1703" height="39.4769" fill="#1ACE5F"/>
<rect x="76.0611" y="240.648" width="40.1703" height="39.4769" fill="#1ACE5F"/>
<rect x="7.12054" y="0.527832" width="40.1703" height="39.4769" fill="#1ACE5F"/>
<rect x="0.560852" y="158.977" width="33.904" height="33.3188" fill="#1ACE5F"/>
<rect x="61.7518" y="40.0054" width="26.5281" height="26.5281" fill="#1ACE5F"/>
<rect x="169.954" y="146.083" width="26.5281" height="26.5281" fill="#1ACE5F"/>
<rect x="65.1586" y="92.7271" width="33.904" height="33.3188" fill="#1ACE5F"/>
<rect x="182.489" y="207.329" width="33.904" height="33.3188" fill="#1ACE5F"/>
<rect x="0.560852" y="240.649" width="40.1703" height="39.4769" fill="#1ACE5F"/>
<rect x="159.502" y="247.123" width="26.5281" height="26.5281" fill="#1ACE5F"/>
</svg>
