<svg width="92" height="80" viewBox="0 0 92 80" fill="none" xmlns="http://www.w3.org/2000/svg">
<path d="M3.67523 68.075V66.2747M3.67523 66.2747V12.7288C3.67523 7.75826 7.70467 3.72882 12.6752 3.72882H62.9072C67.8778 3.72882 71.9072 7.75826 71.9072 12.7288V35.9522C71.9072 40.9228 67.8778 44.9522 62.9072 44.9522H28.7256C26.3387 44.9522 24.0495 45.9004 22.3617 47.5883L3.67523 66.2747Z" stroke="white" stroke-width="7"/>
<path d="M8.65316 63.4865C8.65316 65.3079 5.58177 70.5602 3.76037 70.5602C1.93896 70.5602 0.142453 70.5094 0.142453 68.688C0.142453 66.8666 1.73725 60.9312 3.55866 60.9312C5.38006 60.9312 8.65316 61.6651 8.65316 63.4865Z" fill="white"/>
<path d="M71.7036 16.2116H79.02C83.9905 16.2116 88.02 20.241 88.02 25.2116V75.3644C88.02 76.2553 86.9428 76.7015 86.3129 76.0715L71.6203 61.3789C69.9324 59.6911 67.6433 58.7429 65.2563 58.7429H46.4677H36.3357C31.3651 58.7429 27.3357 54.7134 27.3357 49.7429V45.4" stroke="white" stroke-width="7"/>
</svg>
