<svg width="91" height="74" viewBox="0 0 91 74" fill="none" xmlns="http://www.w3.org/2000/svg">
<path d="M3.19754 0.728821V66.2027C3.19754 68.4119 4.9884 70.2027 7.19754 70.2027H90.04" stroke="white" stroke-width="6"/>
<path d="M31.506 34.3281L33.6274 32.2068L31.506 30.0855L29.3847 32.2068L31.506 34.3281ZM47.7564 50.5785L45.6351 52.6998L47.7564 54.8211L49.8777 52.6998L47.7564 50.5785ZM83.5817 17.7532C83.5817 16.0963 82.2385 14.7532 80.5817 14.7532H53.5817C51.9248 14.7532 50.5817 16.0963 50.5817 17.7532C50.5817 19.41 51.9248 20.7532 53.5817 20.7532H77.5817V44.7532C77.5817 46.41 78.9248 47.7532 80.5817 47.7532C82.2385 47.7532 83.5817 46.41 83.5817 44.7532V17.7532ZM14.7772 55.2997L33.6274 36.4494L29.3847 32.2068L10.5345 51.0571L14.7772 55.2997ZM29.3847 36.4494L45.6351 52.6998L49.8777 48.4571L33.6274 32.2068L29.3847 36.4494ZM49.8777 52.6998L82.703 19.8745L78.4604 15.6319L45.6351 48.4571L49.8777 52.6998Z" fill="white"/>
<circle cx="13.0005" cy="52.8823" r="3.06195" fill="white"/>
</svg>
