<svg width="85" height="89" viewBox="0 0 85 89" fill="none" xmlns="http://www.w3.org/2000/svg">
<path d="M62.8239 8.96033C61.6489 8.96033 60.5221 8.49358 59.6912 7.66276C58.8604 6.83194 58.3937 5.7051 58.3937 4.53014C58.3937 3.35518 58.8604 2.22834 59.6912 1.39752C60.5221 0.566696 61.6489 0.0999451 62.8239 0.0999451H80.5446C81.7196 0.0999451 82.8464 0.566696 83.6773 1.39752C84.5081 2.22834 84.9748 3.35518 84.9748 4.53014V22.2509C84.9748 23.4259 84.5081 24.5527 83.6773 25.3835C82.8464 26.2144 81.7196 26.6811 80.5446 26.6811C79.3697 26.6811 78.2428 26.2144 77.412 25.3835C76.5812 24.5527 76.1144 23.4259 76.1144 22.2509V15.2246L50.4503 40.8887C49.6195 41.7193 48.4929 42.1858 47.3182 42.1858C46.1435 42.1858 45.0168 41.7193 44.186 40.8887L31.8125 28.5152L8.36349 51.9642C7.52794 52.7712 6.40887 53.2178 5.24728 53.2077C4.0857 53.1976 2.97455 52.7317 2.15316 51.9103C1.33177 51.0889 0.865848 49.9777 0.855754 48.8161C0.84566 47.6545 1.2922 46.5355 2.09919 45.6999L28.6804 19.1188C29.5111 18.2882 30.6378 17.8217 31.8125 17.8217C32.9872 17.8217 34.1139 18.2882 34.9446 19.1188L47.3182 31.4923L69.8501 8.96033H62.8239ZM9.66153 70.983V84.2736C9.66153 85.4486 9.19478 86.5754 8.36396 87.4062C7.53314 88.2371 6.4063 88.7038 5.23134 88.7038C4.05638 88.7038 2.92954 88.2371 2.09872 87.4062C1.2679 86.5754 0.801147 85.4486 0.801147 84.2736V70.983C0.801147 69.8081 1.2679 68.6812 2.09872 67.8504C2.92954 67.0196 4.05638 66.5529 5.23134 66.5529C6.4063 66.5529 7.53314 67.0196 8.36396 67.8504C9.19478 68.6812 9.66153 69.8081 9.66153 70.983ZM31.8125 53.2623C31.8125 52.0873 31.3457 50.9605 30.5149 50.1297C29.6841 49.2988 28.5573 48.8321 27.3823 48.8321C26.2073 48.8321 25.0805 49.2988 24.2497 50.1297C23.4189 50.9605 22.9521 52.0873 22.9521 53.2623V84.2736C22.9521 85.4486 23.4189 86.5754 24.2497 87.4062C25.0805 88.2371 26.2073 88.7038 27.3823 88.7038C28.5573 88.7038 29.6841 88.2371 30.5149 87.4062C31.3457 86.5754 31.8125 85.4486 31.8125 84.2736V53.2623ZM49.5333 57.6925C50.7082 57.6925 51.8351 58.1592 52.6659 58.99C53.4967 59.8209 53.9635 60.9477 53.9635 62.1227V84.2736C53.9635 85.4486 53.4967 86.5754 52.6659 87.4062C51.8351 88.2371 50.7082 88.7038 49.5333 88.7038C48.3583 88.7038 47.2315 88.2371 46.4007 87.4062C45.5698 86.5754 45.1031 85.4486 45.1031 84.2736V62.1227C45.1031 60.9477 45.5698 59.8209 46.4007 58.99C47.2315 58.1592 48.3583 57.6925 49.5333 57.6925ZM76.1144 39.9717C76.1144 38.7967 75.6477 37.6699 74.8169 36.8391C73.986 36.0082 72.8592 35.5415 71.6842 35.5415C70.5093 35.5415 69.3824 36.0082 68.5516 36.8391C67.7208 37.6699 67.2541 38.7967 67.2541 39.9717V84.2736C67.2541 85.4486 67.7208 86.5754 68.5516 87.4062C69.3824 88.2371 70.5093 88.7038 71.6842 88.7038C72.8592 88.7038 73.986 88.2371 74.8169 87.4062C75.6477 86.5754 76.1144 85.4486 76.1144 84.2736V39.9717Z" fill="white"/>
</svg>
